<?xml version="1.0" encoding="UTF-8"?>
<svg width="280px" height="105px" viewBox="0 0 280 105" version="1.1" xmlns="http://www.w3.org/2000/svg" xmlns:xlink="http://www.w3.org/1999/xlink">
    <title>缺省页/查通过率备份 4</title>
    <defs>
        <linearGradient x1="41.7605441%" y1="30.2800539%" x2="50%" y2="86.8078883%" id="linearGradient-1">
            <stop stop-color="#E3EBFF" offset="0%"></stop>
            <stop stop-color="#B3C8FF" offset="100%"></stop>
        </linearGradient>
        <linearGradient x1="46.8843671%" y1="21.9215723%" x2="50%" y2="102.409252%" id="linearGradient-2">
            <stop stop-color="#E3EBFF" offset="0%"></stop>
            <stop stop-color="#B3C8FF" offset="100%"></stop>
        </linearGradient>
        <linearGradient x1="44.6920244%" y1="21.9215723%" x2="50%" y2="102.409252%" id="linearGradient-3">
            <stop stop-color="#E3EBFF" offset="0%"></stop>
            <stop stop-color="#B3C8FF" offset="100%"></stop>
        </linearGradient>
        <linearGradient x1="51.0879037%" y1="4.19827882%" x2="51.0879037%" y2="100%" id="linearGradient-4">
            <stop stop-color="#B6CAFF" offset="0%"></stop>
            <stop stop-color="#FFFFFF" stop-opacity="0" offset="100%"></stop>
        </linearGradient>
        <linearGradient x1="48.5066168%" y1="19.7354606%" x2="48.5066168%" y2="87.1301255%" id="linearGradient-5">
            <stop stop-color="#A5BEFF" offset="0%"></stop>
            <stop stop-color="#FFFFFF" stop-opacity="0" offset="100%"></stop>
        </linearGradient>
        <linearGradient x1="48.6630191%" y1="21.9215723%" x2="50%" y2="102.409252%" id="linearGradient-6">
            <stop stop-color="#E3EBFF" offset="0%"></stop>
            <stop stop-color="#B3C8FF" offset="100%"></stop>
        </linearGradient>
        <linearGradient x1="48.6418566%" y1="21.9215723%" x2="50%" y2="102.409252%" id="linearGradient-7">
            <stop stop-color="#E3EBFF" offset="0%"></stop>
            <stop stop-color="#B3C8FF" offset="100%"></stop>
        </linearGradient>
        <linearGradient x1="1.72272354%" y1="41.7469759%" x2="92.5758819%" y2="53.6805412%" id="linearGradient-8">
            <stop stop-color="#AEBEE3" offset="0%"></stop>
            <stop stop-color="#D4DFFD" offset="100%"></stop>
        </linearGradient>
        <linearGradient x1="-9.08348309%" y1="47.0002115%" x2="100%" y2="46.5437299%" id="linearGradient-9">
            <stop stop-color="#F2F5FF" offset="0%"></stop>
            <stop stop-color="#C9D8FF" offset="100%"></stop>
        </linearGradient>
        <linearGradient x1="65.9081313%" y1="10.568109%" x2="32.5278214%" y2="86.4777091%" id="linearGradient-10">
            <stop stop-color="#E3EBFF" offset="0%"></stop>
            <stop stop-color="#B3C8FF" offset="100%"></stop>
        </linearGradient>
        <linearGradient x1="79.6134563%" y1="30.3714291%" x2="17.4750234%" y2="68.1580259%" id="linearGradient-11">
            <stop stop-color="#C9D8FF" offset="0%"></stop>
            <stop stop-color="#ABC2FF" offset="100%"></stop>
        </linearGradient>
        <linearGradient x1="38.0702181%" y1="12.5928994%" x2="38.0702181%" y2="90.6722252%" id="linearGradient-12">
            <stop stop-color="#F1F4FF" offset="0%"></stop>
            <stop stop-color="#C7D7FF" offset="100%"></stop>
        </linearGradient>
        <linearGradient x1="77.3304067%" y1="62.1428716%" x2="59.1051597%" y2="5.89099864%" id="linearGradient-13">
            <stop stop-color="#D8E3FF" offset="0%"></stop>
            <stop stop-color="#C6D0EA" offset="100%"></stop>
        </linearGradient>
        <linearGradient x1="22.3257168%" y1="35.4462419%" x2="119.970221%" y2="79.9512839%" id="linearGradient-14">
            <stop stop-color="#FCFCFF" offset="0%"></stop>
            <stop stop-color="#D5E0FF" offset="100%"></stop>
        </linearGradient>
        <linearGradient x1="81.8661863%" y1="61.6838282%" x2="17.535672%" y2="38.3161718%" id="linearGradient-15">
            <stop stop-color="#CFDCFF" offset="0%"></stop>
            <stop stop-color="#ECF1FF" offset="100%"></stop>
        </linearGradient>
        <linearGradient x1="22.0690761%" y1="53.3592866%" x2="105.863708%" y2="43.1302367%" id="linearGradient-16">
            <stop stop-color="#DAE3FF" stop-opacity="0.119278914" offset="0%"></stop>
            <stop stop-color="#9FB4E9" offset="100%"></stop>
        </linearGradient>
        <linearGradient x1="41.7605441%" y1="31.4638505%" x2="50%" y2="84.5982954%" id="linearGradient-17">
            <stop stop-color="#E3EBFF" offset="0%"></stop>
            <stop stop-color="#B3C8FF" offset="100%"></stop>
        </linearGradient>
        <linearGradient x1="44.7267482%" y1="21.9215723%" x2="50%" y2="102.409252%" id="linearGradient-18">
            <stop stop-color="#E3EBFF" offset="0%"></stop>
            <stop stop-color="#B3C8FF" offset="100%"></stop>
        </linearGradient>
        <linearGradient x1="41.7605441%" y1="40.445535%" x2="50%" y2="67.8337038%" id="linearGradient-19">
            <stop stop-color="#E3EBFF" offset="0%"></stop>
            <stop stop-color="#B3C8FF" offset="100%"></stop>
        </linearGradient>
    </defs>
    <g id="第一版" stroke="none" stroke-width="1" fill="none" fill-rule="evenodd">
        <g id="无数据" transform="translate(-48.000000, -317.000000)">
            <g id="缺省页/查通过率备份-4" transform="translate(48.000000, 317.000000)">
                <g id="plant_11_" transform="translate(61.716370, 56.689357) rotate(-1.000000) translate(-61.716370, -56.689357) translate(45.667670, 37.881026)" fill-rule="nonzero">
                    <path d="M4.8685886,9.68680737 C4.83973668,9.68820208 4.81185396,9.67621251 4.79301883,9.65431237 C4.05975413,8.89969348 3.69121326,7.8633102 3.78340667,6.81515603 C3.83259244,6.41406275 3.9880905,6.03340558 4.23380251,5.71259306 C4.26658201,5.67613094 4.32145797,5.66996145 4.36151543,5.6982348 C4.37999232,5.71014344 4.39236815,5.72950718 4.39541592,5.75127694 C4.39846368,5.7730467 4.39188128,5.79506459 4.37738508,5.81158946 C4.15129399,6.11303949 4.00800505,6.46839605 3.96175133,6.84236115 C3.88050519,7.84655311 4.2389183,8.83660042 4.94415837,9.55607166 C4.95844421,9.5728971 4.96465999,9.59512729 4.9611728,9.61692224 C4.95768561,9.6387172 4.94484403,9.65789821 4.92602162,9.66942632 C4.90925091,9.68125853 4.88910586,9.68735506 4.8685886,9.68680737 Z" id="Path" fill="#D0E7FE"></path>
                    <path d="M19.5253459,37.3574351 C12.7686526,29.3425051 5.90389447,30.800246 5.9091813,28.2663915 C5.9091813,27.49029 8.08483809,25.2118613 11.2489444,26.1836886 C14.4130508,27.1555159 18.7348861,30.3294463 19.5253459,37.3574351 Z" id="Path-2" fill="url(#linearGradient-1)"></path>
                    <path d="M0.94349464,4.06366064 C7.29135549,-6.71334455 32.0208077,3.78858667 19.5729548,37.445096 C19.5729548,37.445096 18.3933107,23.8848561 11.4053739,18.722685 C4.41743706,13.5605139 -2.58410232,10.0510537 0.94349464,4.06366064 Z" id="Path-3" fill="url(#linearGradient-2)"></path>
                    <path d="M19.8827909,37.4806138 C25.830132,34.020274 31.834906,33.2487066 32.0782407,28.1855319 C32.2437385,24.7418173 31.3482367,22.2623731 28.9602319,22.2623731 C27.6264254,22.2623731 22.1219232,26.1587506 19.8827909,37.4806138 Z" id="Path-4" fill="url(#linearGradient-3)"></path>
                    <path d="M18.677453,23.8757979 C18.6404991,23.8763905 18.6085309,23.8501766 18.6018833,23.8138205 C18.5996162,23.7956838 18.1945622,22.0507778 17.0277649,22.0349081 C17.0066297,22.0349759 16.986432,22.0261897 16.9720725,22.0106814 C16.9577131,21.9951732 16.9505042,21.9743603 16.9521951,21.9532928 C16.9509439,21.932477 16.9583498,21.9120695 16.9726598,21.8969009 C16.9869697,21.8817324 17.0069117,21.8731512 17.0277649,21.8731887 C18.312451,21.8905698 18.7333747,23.6989545 18.7507557,23.7760357 C18.7613755,23.8185167 18.7362501,23.8617324 18.6940784,23.8735207 C18.6886379,23.8748912 18.6830618,23.8756515 18.677453,23.8757979 Z" id="Path-5" fill="#FFFFFF"></path>
                    <path d="M19.5389484,28.050262 L19.5245902,28.050262 C19.5026045,28.0462285 19.483138,28.0335869 19.4705107,28.0151426 C19.4578835,27.9966983 19.45314,27.9739771 19.4573331,27.9520213 C19.4679128,27.8960996 19.7021791,26.5811856 20.5493163,26.2532128 C20.5696379,26.2454953 20.5922233,26.2463681 20.6118887,26.2556308 C20.6315541,26.2648935 20.6466107,26.2817506 20.6536026,26.3023331 C20.6696333,26.3453043 20.6485213,26.3932253 20.6059936,26.4103979 C19.8465174,26.7013415 19.6205638,27.9686466 19.6182967,27.9814935 C19.6120608,28.0206461 19.5785899,28.0496542 19.5389484,28.050262 L19.5389484,28.050262 Z" id="Path-6" fill="#FFFFFF"></path>
                    <path d="M16.462503,15.7845323 C16.4276685,15.7840825 16.3971186,15.7611701 16.3869332,15.7278549 C15.7670982,13.692018 13.7283351,12.4362981 11.6313275,12.7987706 C11.6098685,12.8024837 11.5878154,12.7974665 11.5700748,12.7848352 C11.5523343,12.7722039 11.5403777,12.7530063 11.5368653,12.7315135 C11.5321893,12.7095516 11.5365136,12.6866319 11.5488704,12.6678837 C11.5612272,12.6491355 11.5805848,12.6361241 11.602611,12.6317614 C13.7790838,12.2540555 15.8958102,13.5576038 16.5380728,15.6711776 C16.5531775,15.714326 16.5319487,15.761759 16.4897081,15.7792424 C16.4810434,15.7826677 16.47182,15.7844612 16.462503,15.7845323 L16.462503,15.7845323 Z" id="Path-7" fill="#FFFFFF"></path>
                    <path d="M17.4343303,18.6614735 C17.4015107,18.658217 17.3745937,18.6340529 17.3678289,18.6017734 C17.0529152,17.4563163 17.1546745,16.2362759 17.654994,15.1588146 C17.8541368,14.739359 18.1412589,14.3676984 18.4968413,14.0690984 C18.512252,14.0578379 18.5319116,14.0541091 18.5503752,14.0589448 C18.5688389,14.0637805 18.5841467,14.0766674 18.5920592,14.0940365 C18.6138443,14.1317355 18.6052188,14.1796549 18.5716554,14.2073911 C18.5535186,14.2187266 16.8131468,15.567647 17.5038545,18.56021 C17.5149618,18.6008912 17.4938478,18.643444 17.4547341,18.6592064 C17.4480935,18.6610259 17.4412083,18.6617909 17.4343303,18.6614735 Z" id="Path-8" fill="#FFFFFF"></path>
                    <path d="M19.7029348,37.616663 C19.6716041,37.6174194 19.6430432,37.5987797 19.6311436,37.5697861 C16.4141384,30.5365075 8.5480808,28.2845283 8.46948823,28.262613 C8.42693762,28.2494947 8.40228016,28.205178 8.4135666,28.1621052 C8.4175184,28.1407324 8.43048138,28.122096 8.44914453,28.1109559 C8.46780768,28.0998159 8.4903638,28.0972511 8.51105161,28.1039165 C8.58662138,28.1258317 16.3106078,30.3354919 19.6387005,37.2062955 C19.7729639,32.7778936 19.4602863,28.3472397 18.7054138,23.9815854 C17.5303039,17.4485787 14.6956817,8.98325279 7.86115157,5.7322412 C7.82110469,5.71225764 7.80406825,5.66415477 7.82261098,5.62342073 C7.83016592,5.60327676 7.8459486,5.58730782 7.86600255,5.57951707 C7.8860565,5.57172633 7.90848042,5.57285242 7.92765297,5.58261305 C11.7348581,7.39628758 16.722463,12.0506298 18.8618433,23.9506018 C19.6404417,28.4348956 19.9489258,32.9882021 19.7822831,37.5365354 C19.780648,37.573441 19.7542089,37.6045459 19.7180488,37.6121052 L19.7029348,37.616663 Z" id="Path-9" fill="#FFFFFF"></path>
                    <path d="M19.4716913,37.3521452 C19.447102,37.3522806 19.4239858,37.3404374 19.4097241,37.3204059 C19.3848692,37.2838054 19.3920845,37.2342825 19.4263495,37.2062955 C27.1359776,30.8418093 28.6367933,24.8597062 28.6511515,24.8000061 C28.6551248,24.7787249 28.6676208,24.7599913 28.6857428,24.7481478 C28.7038647,24.7363043 28.726039,24.7323795 28.7471252,24.7372832 C28.790552,24.749419 28.8161502,24.7942158 28.8045582,24.837791 C28.7909556,24.8997582 27.2803159,30.9340045 19.5245902,37.3347642 C19.5098122,37.3470796 19.4908938,37.3532956 19.4716913,37.3521452 L19.4716913,37.3521452 Z" id="Path-10" fill="#FFFFFF"></path>
                    <path d="M12.6280928,30.1163395 C12.6155024,30.1161764 12.6033047,30.1119337 12.5933307,30.1042484 C12.0031583,29.6492334 11.7528721,28.8785678 11.9630788,28.1636166 C11.9672737,28.1465572 11.9783507,28.1319991 11.9936737,28.1234068 C12.0089967,28.1148144 12.0271952,28.1129564 12.0439384,28.1182748 C12.0795885,28.1367368 12.0960657,28.1787375 12.082479,28.2165155 C11.885404,28.8658432 12.1158869,29.569073 12.6590764,29.9757798 C12.690766,30.0009705 12.699701,30.0453265 12.6802359,30.0808217 C12.670267,30.1009692 12.6504913,30.1144396 12.6280928,30.1163395 Z" id="Path-11" fill="#FFFFFF"></path>
                    <path d="M15.6365254,32.4522012 C15.6155355,32.4520209 15.5954549,32.4436088 15.5806038,32.4287746 C14.7666635,31.6748836 13.7054685,31.2441175 12.5963535,31.2173911 L12.5963535,31.2173911 C12.5511547,31.217393 12.5143971,31.1809726 12.5139824,31.1357758 C12.5122143,31.0916578 12.5455467,31.0539922 12.5895522,31.0503819 C13.7434239,31.0671916 14.8490248,31.5161734 15.6879129,32.3086186 C15.7192931,32.3413579 15.7192931,32.3930125 15.6879129,32.4257518 C15.6749649,32.4410288 15.6564825,32.4505418 15.6365254,32.4522012 Z" id="Path-12" fill="#FFFFFF"></path>
                    <path d="M26.0757337,30.3082868 C26.0465561,30.3087389 26.0197256,30.2923515 26.0068048,30.2661869 C25.993884,30.2400222 25.9971821,30.2087565 26.0152779,30.1858637 C26.8246089,29.0624995 26.8246089,27.5473647 26.0152779,26.4240005 C26.0033324,26.4078735 25.9982925,26.3876573 26.0012695,26.3678102 C26.0042466,26.347963 26.0149962,26.3301152 26.0311475,26.3182028 C26.0474184,26.3055267 26.0681636,26.3000521 26.0885706,26.3030489 C26.1089776,26.3060457 26.1272728,26.3172536 26.1392123,26.3340724 C26.1543263,26.3544763 27.6226469,28.3789905 26.1392123,30.2780588 C26.1243138,30.2979638 26.1005775,30.3092668 26.0757337,30.3082868 Z" id="Path-13" fill="#FFFFFF"></path>
                    <path d="M23.1330468,34.2129804 C23.1107215,34.2131822 23.0892355,34.204479 23.0733467,34.1887945 C23.0590514,34.1740438 23.0513767,34.1541094 23.0520895,34.1335806 C23.0528023,34.1130518 23.0618412,34.0936977 23.0771252,34.0799741 C25.2429548,32.1793943 26.7165654,32.2103779 26.7770212,32.2103779 C26.7977357,32.210347 26.8175528,32.2188304 26.8318387,32.2338305 C26.8461245,32.2488307 26.8536267,32.2690375 26.852591,32.2897262 C26.8516232,32.3110569 26.8420992,32.3310973 26.8261714,32.3453186 C26.8102437,32.3595398 26.7892565,32.3667414 26.7679528,32.3652959 C26.7581288,32.3615175 25.3011435,32.3403579 23.1889684,34.1918173 C23.1734517,34.2053204 23.1536157,34.2128259 23.1330468,34.2129804 L23.1330468,34.2129804 Z" id="Path-14" fill="#FFFFFF"></path>
                </g>
                <path d="M280,104.55573 C244.818072,80.4200508 195.100627,65.3714038 140,65.3714038 C84.8993735,65.3714038 35.1819272,80.4200508 0,104.55573 L280,104.55573 Z" id="路径" fill="url(#linearGradient-4)"></path>
                <polygon id="路径" fill="url(#linearGradient-5)" points="194.214314 103.908436 90.3058775 103.111217 102.397041 67.6349459 176.077569 67.6349459"></polygon>
                <g id="plant_25_" transform="translate(207.728742, 46.982502)" fill-rule="nonzero">
                    <g id="Group" transform="translate(0.000000, 10.180332)">
                        <path d="M0.997624047,20.5002209 C0.205652836,18.5444752 -0.976258398,15.7740874 1.43744012,14.1380018 C3.85113864,12.5019162 1.64752409,11.5331118 1.56968722,9.16173233 C1.49185036,6.79035288 3.95769202,6.18050482 3.88363364,5.05602661 C3.74204868,3.73873361 3.75269867,2.40951438 3.91537294,1.09465917 C4.2932218,-0.325296849 7.1459807,-0.969907004 7.43692432,3.02773393 C7.61980317,5.53967316 7.86540493,7.05635848 9.13497709,8.84660638 C10.4045493,10.6368543 7.6084677,12.5328999 7.65985515,13.9755268 C7.71124259,15.4181538 9.08963523,15.2042913 8.93849569,18.2610886 C8.78735614,21.3178858 6.88375359,23.6265424 5.07310185,23.4935396 C3.30279173,23.2321006 1.77670895,22.1112377 0.997624047,20.5002209 Z" id="Path-15" fill="url(#linearGradient-6)"></path>
                        <path d="M7.10366162,10.1645432 C7.07701028,10.150132 7.04555746,10.1474844 7.01687203,10.1572375 C6.9881866,10.1669905 6.96486598,10.1882611 6.95252208,10.2159306 C6.93136254,10.2605168 6.42806786,11.2837315 5.60813584,10.9489574 C5.70871286,10.3260931 5.7403912,9.69404684 5.70259805,9.06424732 C5.70433947,9.06056495 5.7058537,9.05677938 5.70713224,9.05291186 C5.71173409,9.02716032 5.70775156,9.00061012 5.69579677,8.97734208 C5.6859727,8.87607859 5.67388154,8.77632649 5.65725619,8.675063 C5.48765972,7.15518288 5.49374543,5.62082307 5.67539293,4.10233609 C5.73130511,3.72470764 5.7485235,3.34235804 5.72678038,2.96123254 C5.72087394,2.93177231 5.7031293,2.9060299 5.67769821,2.89002831 C5.65226712,2.87402673 5.62138094,2.86916997 5.59226618,2.87659439 C5.53156489,2.89452996 5.49609209,2.95744397 5.51216223,3.01866556 C5.51921652,3.3737671 5.5000199,3.72890448 5.4547292,4.08117656 C5.27076139,5.62029537 5.26543612,7.17552811 5.43885955,8.71587067 C5.44717222,8.76423533 5.45246211,8.81486707 5.45926339,8.86701022 C4.77168288,8.66357683 4.22250628,8.14416134 3.98111864,7.46896943 C3.97327934,7.43996505 3.95387431,7.41545191 3.92744342,7.40116494 C3.90101253,7.38687798 3.86987465,7.38407062 3.84131457,7.39339966 C3.78186258,7.4154267 3.7504793,7.48053031 3.77027898,7.54076072 C4.04307461,8.32128195 4.68698765,8.91446416 5.4872242,9.12243605 C5.47994306,10.6037241 5.27665888,12.0775343 4.88266602,13.5054828 C4.57097743,14.7798845 4.34701781,16.074154 4.21236215,17.3791893 C4.17557484,18.0088846 4.18694338,18.6404702 4.24636854,19.2684336 C3.64181037,18.9555748 1.99816783,17.9837475 1.95509306,16.6741234 C1.95165275,16.6128391 1.90230735,16.5641473 1.8409827,16.5615244 C1.77820976,16.5655704 1.73054987,16.6196526 1.73442932,16.682436 C1.78581677,18.2429518 3.76952328,19.2979058 4.26979517,19.5397291 C4.43302588,21.2732997 4.81540893,23.2426479 5.10106267,24.6988774 C5.26671724,25.3914706 5.38038835,26.0954737 5.44112664,26.805007 C5.42777577,26.8665669 5.46550133,26.9276623 5.52652048,26.9432997 C5.53405133,26.9439662 5.54166056,26.9439662 5.54919141,26.9432997 C5.60273565,26.9419616 5.6479267,26.903091 5.65725619,26.8503489 C5.6160548,26.1068716 5.50164282,25.3692687 5.31568082,24.6482457 C5.03682836,23.21242 4.6604909,21.2717883 4.49574879,19.5646671 C4.50893095,19.5540953 4.51952766,19.5406556 4.5267324,19.5253709 C4.54738697,19.4722868 4.52740226,19.4120155 4.47912344,19.3817883 C4.41694288,18.7563425 4.40027367,18.1272062 4.42924739,17.4993453 C5.32811723,17.4905294 6.1233051,16.9147455 6.41219821,16.0635196 C6.43012486,16.0027025 6.39673767,15.9385991 6.33662844,15.9184256 C6.30836646,15.9100304 6.2779201,15.9132957 6.25208106,15.927493 C6.22624202,15.9416902 6.20715993,15.9656384 6.19909145,15.9939954 C5.94673437,16.748553 5.24150603,17.2583236 4.44587274,17.2613005 C4.58468271,16.0121407 4.80276343,14.7730686 5.09879557,13.5515804 C5.27865163,12.7316484 5.4539735,11.9321202 5.57337374,11.1802009 C5.68721602,11.2230136 5.80768665,11.2455219 5.92930737,11.2467023 C6.47395541,11.178693 6.94034453,10.8239258 7.15127058,10.3171941 C7.17611517,10.2615822 7.15571497,10.1961721 7.10366162,10.1645432 Z" id="Path-16" fill="#FFFFFF"></path>
                    </g>
                    <g id="Group-2" transform="translate(10.246726, 0.000000)">
                        <path d="M11.9353722,28.6635955 C13.0515377,25.9294812 14.7170955,22.055019 11.313433,19.767522 C7.90977044,17.480025 11.0171995,16.125059 11.1275313,12.8098131 C11.2378632,9.49456717 7.76316508,8.64214014 7.86745136,7.0665104 C7.97173765,5.49088065 8.14403673,2.71444723 7.8228652,1.52800181 C7.28631982,-0.454193313 3.26903074,-1.35574069 2.85944257,4.23415534 C2.60174965,7.74663834 2.2548844,9.86712615 0.466147895,12.3722641 C-1.32258861,14.877402 2.618375,17.5261225 2.54507232,19.5430798 C2.47176964,21.560037 0.530382202,21.2615364 0.742733261,25.5357627 C0.95508432,29.809989 3.63932262,33.0421081 6.19131382,32.8516723 C7.92412869,32.722448 10.915936,31.1596651 11.9353722,28.6635955 Z" id="Path-17" fill="url(#linearGradient-7)"></path>
                        <path d="M10.8486789,23.3185456 C10.8521254,23.2556317 10.8042476,23.2016849 10.7413698,23.1976339 C10.6803157,23.200523 10.6310196,23.2485219 10.6265037,23.3094772 C10.5622694,25.2251709 8.08358091,26.6201889 7.29689959,27.012396 C7.38899734,26.1100892 7.40845618,25.2018417 7.35508831,24.2964184 C7.16538747,22.4737423 6.85001476,20.6663461 6.41122186,18.8871341 C5.90490439,16.6034156 5.42881482,14.4353189 5.56332902,12.7138395 C6.68395829,12.4361494 7.59151477,11.6165124 7.98156172,10.529873 C8.00088687,10.4698723 7.96959209,10.4052852 7.91052613,10.3832677 C7.88196469,10.3741648 7.85092877,10.3770754 7.82455784,10.39133 C7.7981869,10.4055846 7.77875134,10.4299558 7.77072206,10.4588375 C7.40998737,11.4400251 6.59824642,12.1870519 5.59053413,12.4652149 C5.6018696,12.369997 5.61396076,12.2755348 5.62907472,12.1833397 C5.87280173,10.0340264 5.86519343,7.86363029 5.60640379,5.71607857 C5.54046635,5.21842411 5.51393444,4.71633939 5.52705553,4.2145072 C5.54308098,4.15347527 5.50754851,4.09079063 5.44695157,4.07319173 C5.41785142,4.0657421 5.38697183,4.07047954 5.36144324,4.08631012 C5.33591466,4.10214069 5.31794428,4.12769569 5.31168168,4.15707417 C5.28504046,4.68499925 5.31035205,5.21426476 5.38725145,5.73723811 C5.64237612,7.86533467 5.64922337,10.0158768 5.40765529,12.1455548 C5.38498435,12.2815804 5.36760331,12.4213844 5.35400075,12.5634556 C5.33793873,12.5893854 5.33227014,12.6204277 5.3381311,12.6503608 C5.34003517,12.6571305 5.34256507,12.6637082 5.34568807,12.670009 C5.29136855,13.5633433 5.33775803,14.4599533 5.48398076,15.3429118 L5.48398076,15.3429118 C4.2748644,15.8628319 3.53276924,14.3695732 3.50178564,14.3060946 C3.48944174,14.278425 3.46612111,14.2571544 3.43743568,14.2474014 C3.40875025,14.2376483 3.37729744,14.2402959 3.35064609,14.2547071 C3.29540052,14.28559 3.27385131,14.354216 3.30152574,14.4111365 C3.30908272,14.4262505 3.93102194,15.6859986 4.98068607,15.6859986 C5.16617344,15.6839346 5.34956241,15.6464874 5.52100994,15.5756667 C5.68877484,16.6419562 5.93891078,17.7777699 6.20113789,18.9438115 C6.62381647,20.669447 6.93330402,22.4208538 7.1276233,24.1868422 C6.66589199,24.1566143 5.00335701,23.9495532 4.56429663,22.3822361 C4.55606008,22.3538229 4.53683065,22.3298685 4.51087074,22.3156828 C4.48491084,22.301497 4.45436496,22.2982518 4.42600395,22.3066663 C4.36599874,22.3265121 4.33255832,22.3903833 4.35043418,22.4510046 C4.8401263,24.197422 6.68705153,24.4022161 7.14651574,24.4256427 C7.19154689,25.3280369 7.16628068,26.2325672 7.07094597,27.1310406 L7.06641178,27.1310406 C7.00971846,27.1577469 6.98357227,27.2239398 7.00671166,27.2821801 C7.0154082,27.3041752 7.0307245,27.3229244 7.05054213,27.3358346 C6.81627584,29.6520482 6.28728743,32.2289774 5.89432462,34.1431597 C5.63498921,35.0939143 5.47443513,36.0688878 5.41521226,37.0525959 C5.42491757,37.1053118 5.47043872,37.1438783 5.52403273,37.144791 C5.53181409,37.1454864 5.53967801,37.1454864 5.54745936,37.144791 C5.6086782,37.1298329 5.64686799,37.0688632 5.6336089,37.0072541 C5.7146599,36.0574908 5.87363976,35.1159964 6.10894277,34.1922801 C6.50719547,32.2531597 7.04449655,29.6354228 7.27649575,27.2867143 C7.92715148,26.9768782 10.778399,25.5032677 10.8486789,23.3185456 Z" id="Path-18" fill="#FFFFFF"></path>
                    </g>
                </g>
                <g id="编组-5" transform="translate(92.833855, 18.892443)" fill-rule="nonzero">
                    <g id="路径" transform="translate(0.000000, 0.000000)">
                        <polygon fill="url(#linearGradient-8)" points="9.37068585 7.29207254 42.3847483 0.0744780095 42.3847483 11.0769087"></polygon>
                        <polygon fill="url(#linearGradient-9)" points="42.3847483 5.0658678e-14 42.100378 18.1184641 83.5439954 5.57230803"></polygon>
                        <polygon fill="url(#linearGradient-10)" points="9.37068585 7.29207254 48.336217 11.1513867 48.336217 60.4558176 9.37068585 51.0241954"></polygon>
                        <polygon id="矩形" fill="url(#linearGradient-11)" points="9.37068585 7.29207254 48.3633001 10.9990454 44.1179452 34.8028517 9.37068585 27.5641689"></polygon>
                        <polygon fill="url(#linearGradient-12)" opacity="0.99" points="48.336217 11.1513867 83.5439954 5.57230803 83.5439954 49.7377573 48.336217 60.4558176"></polygon>
                        <polygon id="矩形" fill="url(#linearGradient-13)" points="48.3633001 11.2732598 80.235714 6.17743784 83.5439954 27.0274309 53.0746226 34.8028517"></polygon>
                        <polygon fill="url(#linearGradient-14)" opacity="0.99" points="48.336217 11.1513867 59.3995845 30.65785 94.8578797 21.7611154 83.5439954 5.57230803"></polygon>
                        <polygon fill="url(#linearGradient-15)" points="9.37068585 7.29207254 1.09110999e-13 23.1558852 39.3379216 30.65785 48.336217 11.1513867"></polygon>
                    </g>
                    <g id="_人物" transform="translate(12.256912, 3.208586)">
                        <path d="M24.893751,5.39046144 L28.0251665,7.03495598 C28.0251665,7.03495598 21.6334116,7.12950009 18.8830375,9.47018309 C16.1326633,11.8108661 13.726086,16.9047882 4.89910394,13.8679167 C-3.92787807,10.8310453 2.77902387,7.57070594 6.16542204,8.14083558 C9.5518202,8.71096522 14.1701568,7.50767653 16.4793251,5.10396413 C18.7884934,2.70025173 24.1030184,4.75730239 24.893751,5.39046144 Z" id="路径" fill="url(#linearGradient-16)"></path>
                        <path d="M15.7774067,2.11293225 C15.7774067,2.11293225 12.978328,2.16163679 11.0788508,4.74011255 C10.5402359,5.49933042 10.2250889,5.98924081 9.97010627,6.38460709 C9.71512367,6.77997338 9.00461035,7.47616183 7.96176015,6.62239986 C6.91890995,5.76863788 4.30891949,3.56833857 4.30891949,3.56833857 L2.93373242,5.42197614 C2.93373242,5.42197614 7.47184976,10.4156242 9.32262236,10.1806964 C11.173395,9.94290364 13.2447705,10.1319919 15.634158,7.17533966 C18.0235456,4.21582248 18.6395148,3.50530916 18.6395148,3.50530916 L15.7774067,2.11293225 Z" id="路径" fill="#6B93FF"></path>
                        <path d="M3.63565082,2.20747636 L0.28076736,6.72267391 C0.28076736,6.72267391 1.46686621,7.94888239 2.73318431,6.12962449 C3.9995024,4.31036659 4.68709594,3.22740677 4.68709594,3.22740677 L3.63565082,2.20747636 Z" id="路径" fill="#141A33"></path>
                        <polygon id="路径" fill="#141A33" points="3.40645298 1.89805927 1.75336352 3.75742679 2.06278061 4.09835859 -2.29095386e-14 6.53072072 0.269307468 6.80575813 4.01669224 2.47678383"></polygon>
                        <path d="M15.9091954,2.25904588 C15.9091954,2.25904588 13.7690606,2.89220493 12.4597679,5.48500555 C11.1533401,8.08067115 10.952792,9.04903204 9.50598063,8.33278878 C8.06203421,7.61654551 5.4033392,6.28719801 5.4033392,6.28719801 L4.23156522,8.35284359 C4.23156522,8.35284359 9.46300604,12.5815438 11.4971369,11.6532926 C13.5312678,10.7250413 19.8084238,6.48488115 19.8084238,6.48488115 C19.8084238,6.48488115 20.2524946,4.90341602 20.1780053,4.82892672 C20.106381,4.76016736 15.9091954,2.25904588 15.9091954,2.25904588 Z" id="路径" fill="#6B93FF"></path>
                        <path d="M4.57822696,5.23861787 L1.2233435,9.75381542 C1.2233435,9.75381542 2.40944235,10.9800239 3.67576044,9.16076599 C4.94207854,7.3415081 5.62967208,6.25854828 5.62967208,6.25854828 L4.57822696,5.23861787 Z" id="路径" fill="#141A33"></path>
                        <polygon id="路径" fill="#141A33" points="4.34902911 4.92920078 2.69593966 6.7885683 3.00535675 7.12950009 0.945441112 9.56186222 1.21474858 9.83689964 4.95926838 5.50792533"></polygon>
                        <path d="M28.0280315,7.03495598 C28.0280315,7.03495598 26.2517482,0.817964425 21.1807459,0.153290674 C16.1068786,-0.511383078 14.0899375,1.16176119 13.9696087,1.80638013 C13.8865245,2.24185604 14.3907597,2.39083464 14.3907597,2.39083464 C14.3907597,2.39083464 18.4819413,3.96083988 19.1351551,6.8945723 C19.2411591,7.37875275 19.5992807,7.23263912 20.6106162,6.83154289 C21.6219517,6.43044666 23.1547123,5.94913119 25.1258138,6.29579293 C26.383537,6.65391456 28.0280315,7.03495598 28.0280315,7.03495598 Z" id="路径" fill="#F8F8F8"></path>
                    </g>
                </g>
                <g id="分组" transform="translate(179.106221, 10.411653) rotate(-9.000000) translate(-179.106221, -10.411653) translate(169.040620, 1.464452)" fill-rule="nonzero">
                    <polygon id="路径-2" fill="url(#linearGradient-17)" points="6.71040067 8.90769134 7.71242111 11.1840011 18.6400019 5.55780735 14.0872958 1.49120015"></polygon>
                    <polygon id="路径-2-copy" fill="url(#linearGradient-18)" points="0 7.45600075 2.035622 7.45600075 5.9648006 -1.11866622e-13 1.05673303 -1.11866622e-13"></polygon>
                    <polygon id="路径-2-copy-2" fill="url(#linearGradient-19)" points="11.1840011 14.6440479 11.1840011 16.6514262 20.131202 17.8944018 18.2509031 12.6752013"></polygon>
                </g>
            </g>
        </g>
    </g>
</svg>